<?xml version="1.0" encoding="UTF-8"?>
<svg xmlns="http://www.w3.org/2000/svg" viewBox="0 0 26 26">
    <path style="line-height:normal;text-indent:0;text-align:start;text-decoration-line:none;text-decoration-style:solid;text-decoration-color:#000;text-transform:none;block-progression:tb;isolation:auto;mix-blend-mode:normal" d="M 12.585938 2 L 2 12.585938 L 2 24 L 24 24 L 24 23 L 24 2 L 12.585938 2 z M 14.869141 4 L 20.585938 4 L 17.15625 7.4296875 L 14.869141 4 z M 12.84375 4.5703125 L 14.976562 7.7695312 L 10.177734 7.2363281 L 12.84375 4.5703125 z M 22 5.4140625 L 22 18.125 L 18.1875 9.2265625 L 22 5.4140625 z M 9.1328125 9.1328125 L 14.822266 9.7636719 L 9.7636719 14.822266 L 9.1328125 9.1328125 z M 7.2363281 10.177734 L 7.7695312 14.976562 L 4.5703125 12.84375 L 7.2363281 10.177734 z M 16.662109 10.751953 L 21.09375 21.09375 L 10.751953 16.662109 L 16.662109 10.751953 z M 4 14.869141 L 7.4296875 17.15625 L 4 20.585938 L 4 14.869141 z M 9.2265625 18.1875 L 18.125 22 L 5.4140625 22 L 9.2265625 18.1875 z" font-weight="400" font-family="sans-serif" white-space="normal" overflow="visible"/>
</svg>